<svg version="1.1" xmlns="http://www.w3.org/2000/svg" xmlns:xlink="http://www.w3.org/1999/xlink" width="48px" height="48px" viewBox="0,0,256,256"><g fill="none" fill-rule="nonzero" stroke="none" stroke-width="1" stroke-linecap="butt" stroke-linejoin="miter" stroke-miterlimit="10" stroke-dasharray="" stroke-dashoffset="0" font-family="none" font-weight="none" font-size="none" text-anchor="none" style="mix-blend-mode: normal"><g transform="scale(5.33333,5.33333)"><circle cx="24" cy="25.1" r="16.9" fill="#f55376"></circle><path d="M38.4,11.6c-1.5,-2.3 -3.8,-4.1 -6.7,-4.7c-2.1,-0.5 -4.2,-0.3 -6.2,0.5l1.7,-5.4h-6.4l1.6,5.4c-1.9,-0.7 -4,-1 -6.1,-0.5c-2.8,0.6 -5.2,2.4 -6.6,4.7c1.5,1 3.2,1.5 5,1.7c-0.9,1.7 -1.4,3.6 -1.3,5.5c2.8,-0.1 5.5,-1.2 7.5,-3.3c0.1,-0.1 0.2,-0.2 0.3,-0.3c0.4,2.1 1.5,4 2.9,5.5c1.5,-1.5 2.5,-3.4 3,-5.5c0.1,0.1 0.2,0.2 0.3,0.4c2,2.1 4.7,3.2 7.5,3.3c0,-1.9 -0.4,-3.8 -1.3,-5.5c1.6,-0.2 3.3,-0.8 4.8,-1.8z" fill="#3ddab4"></path><path d="M24,8.2c-4.5,0 -8.7,1.8 -11.7,4.7c0.8,0.2 1.5,0.4 2.4,0.4c-0.9,1.7 -1.4,3.6 -1.3,5.5c2.8,-0.1 5.5,-1.2 7.5,-3.3c0.1,-0.1 0.2,-0.2 0.3,-0.3c0.4,2.1 1.5,4 2.9,5.5c1.5,-1.5 2.5,-3.4 3,-5.5c0.1,0.1 0.2,0.2 0.3,0.4c2,2.1 4.7,3.2 7.5,3.3c0,-1.9 -0.4,-3.8 -1.3,-5.5c0.8,-0.1 1.6,-0.2 2.3,-0.4c-3.2,-3.1 -7.4,-4.8 -11.9,-4.8z" fill="#00b569"></path></g></g></svg>